<?xml version="1.0" encoding="iso-8859-1"?>
<!-- Generator: Adobe Illustrator 19.0.0, SVG Export Plug-In . SVG Version: 6.00 Build 0)  -->
<svg version="1.1" id="Layer_1" xmlns="http://www.w3.org/2000/svg" xmlns:xlink="http://www.w3.org/1999/xlink" x="0px" y="0px"
	 viewBox="0 0 476.944 476.944" style="enable-background:new 0 0 476.944 476.944;" xml:space="preserve" fill="#000">
<g>
	<path d="M84.176,379.875c-26.762,0-48.534,21.772-48.534,48.534s21.772,48.534,48.534,48.534s48.534-21.772,48.534-48.534
		S110.938,379.875,84.176,379.875z M84.176,446.944c-10.22,0-18.534-8.314-18.534-18.534s8.314-18.534,18.534-18.534
		s18.534,8.314,18.534,18.534S94.396,446.944,84.176,446.944z"/>
	<path d="M474.945,30V0h-61.624l-9.835,60H1.999l28.735,175.879c4.043,24.671,26.794,43.996,51.794,43.996h130.756
		c-0.001,0.19-0.007,0.38-0.007,0.57c0,13.744,2.161,26.992,6.149,39.429H50.642v30H233.52
		c15.742,24.669,39.607,43.675,67.799,53.214c-4.53,7.377-7.147,16.048-7.147,25.32c0,26.762,21.772,48.534,48.535,48.534
		c26.762,0,48.534-21.772,48.534-48.534c0-9.273-2.617-17.944-7.147-25.32c51.133-17.302,88.042-65.743,88.042-122.644
		c0-44.48-22.556-83.789-56.828-107.097L438.804,30H474.945z M361.241,428.41c0,10.22-8.314,18.534-18.534,18.534
		c-10.221,0-18.535-8.314-18.535-18.534s8.314-18.534,18.535-18.534C352.927,409.875,361.241,418.19,361.241,428.41z
		 M442.136,280.446c0,54.826-44.604,99.43-99.429,99.43c-54.826,0-99.43-44.604-99.43-99.43s44.604-99.429,99.43-99.429
		C397.532,181.016,442.136,225.62,442.136,280.446z M342.707,151.016c-60.839,0-111.999,42.197-125.773,98.859H82.528
		c-10.175,0-20.543-8.807-22.188-18.841L37.298,90h361.271l-11.298,68.924C373.371,153.81,358.359,151.016,342.707,151.016z"/>
	<rect x="281.091" y="265.446" width="123.231" height="30"/>
</g>
<g>
</g>
<g>
</g>
<g>
</g>
<g>
</g>
<g>
</g>
<g>
</g>
<g>
</g>
<g>
</g>
<g>
</g>
<g>
</g>
<g>
</g>
<g>
</g>
<g>
</g>
<g>
</g>
<g>
</g>
</svg>
